<svg xmlns="http://www.w3.org/2000/svg" width="19.499" height="19.502" viewBox="0 0 19.499 19.502"><path d="M19.231,6.656,17.723,5.148a.91.91,0,0,0-1.291,0L7.31,14.269,3.068,10.023a.91.91,0,0,0-1.291,0L.265,11.535a.915.915,0,0,0,0,1.295l6.4,6.4a.91.91,0,0,0,1.291,0L19.227,7.951A.918.918,0,0,0,19.231,6.656ZM6.88,10.693a.6.6,0,0,0,.861,0l7.921-7.929a.611.611,0,0,0,0-.861L13.941.178a.6.6,0,0,0-.861,0L7.31,5.948,5.2,3.834a.6.6,0,0,0-.861,0L2.615,5.559a.611.611,0,0,0,0,.861Z" transform="translate(0.004 0.002)"/></svg>