<svg xmlns="http://www.w3.org/2000/svg" width="24.5" height="24.5" viewBox="0 0 24.5 24.5"><g transform="translate(-0.5 -0.5)"><path d="M19.636,16.568A3.068,3.068,0,1,1,16.568,13.5,3.068,3.068,0,0,1,19.636,16.568Z" transform="translate(-3.818 -3.818)" fill="none" stroke="#fff" stroke-linecap="round" stroke-width="2"/><path d="M20.318,15.818a1.688,1.688,0,0,0,.337,1.861l.061.061a2.047,2.047,0,1,1-2.894,2.894l-.061-.061a1.7,1.7,0,0,0-2.884,1.207v.174a2.045,2.045,0,1,1-4.091,0v-.092a1.687,1.687,0,0,0-1.1-1.544,1.687,1.687,0,0,0-1.861.337l-.061.061a2.047,2.047,0,1,1-2.894-2.894l.061-.061a1.7,1.7,0,0,0-1.207-2.884H3.545a2.045,2.045,0,1,1,0-4.091h.092a1.687,1.687,0,0,0,1.544-1.1A1.688,1.688,0,0,0,4.844,7.82l-.061-.061A2.047,2.047,0,1,1,7.677,4.865l.061.061A1.688,1.688,0,0,0,9.6,5.264h.082A1.687,1.687,0,0,0,10.7,3.719V3.545a2.045,2.045,0,1,1,4.091,0v.092A1.7,1.7,0,0,0,17.68,4.844l.061-.061a2.047,2.047,0,1,1,2.894,2.894l-.061.061A1.687,1.687,0,0,0,20.236,9.6v.082A1.688,1.688,0,0,0,21.781,10.7h.174a2.045,2.045,0,1,1,0,4.091h-.092a1.687,1.687,0,0,0-1.544,1.023Z" fill="none" stroke="#fff" stroke-linecap="round" stroke-width="2"/></g></svg>