<svg xmlns="http://www.w3.org/2000/svg" width="17" height="24.728" viewBox="0 0 17 24.728"><path d="M4.639,21.943A1.546,1.546,0,0,0,4.9,22.8l.825,1.241a1.545,1.545,0,0,0,1.287.69H9.99a1.545,1.545,0,0,0,1.287-.69L12.1,22.8a1.545,1.545,0,0,0,.259-.854l0-1.852H4.637ZM0,8.5a8.453,8.453,0,0,0,2.1,5.592,13.879,13.879,0,0,1,2.522,4.417c0,.013,0,.025.005.038h7.739c0-.013,0-.025.005-.038A13.879,13.879,0,0,1,14.9,14.092,8.5,8.5,0,1,0,0,8.5ZM8.5,4.636A3.868,3.868,0,0,0,4.636,8.5a.773.773,0,0,1-1.545,0A5.415,5.415,0,0,1,8.5,3.091a.773.773,0,0,1,0,1.545Z" transform="translate(0 0)" fill="#fff"/></svg>